<svg width="32" height="32" viewBox="0 0 32 32" fill="none" xmlns="http://www.w3.org/2000/svg">
<path d="M32 16C32 7.16344 24.8366 0 16 0C7.16344 0 0 7.16344 0 16C0 24.8366 7.16344 32 16 32C24.8366 32 32 24.8366 32 16Z" fill="#0077FF"/>
<path d="M16.7113 20.982C11.2448 20.982 8.12787 17.2418 8 11.008H10.7493C10.8372 15.5794 12.8511 17.5135 14.4495 17.9131V11.008H17.031V14.9481C18.6054 14.7802 20.2677 12.982 20.8272 11H23.4006C23.1908 12.026 22.7716 12.9977 22.1693 13.8544C21.567 14.7111 20.7945 15.4343 19.9001 15.979C20.8982 16.4758 21.7797 17.1786 22.4864 18.041C23.1931 18.9033 23.709 19.9057 24 20.982H21.1628C20.5554 19.0879 19.037 17.6174 17.031 17.4176V20.982H16.7193H16.7113Z" fill="white"/>
</svg>
